<svg width="37" height="37" viewBox="0 0 37 37" fill="none" xmlns="http://www.w3.org/2000/svg">
<g id="like">
<path id="Vector" d="M18.3917 10.521L17.6687 9.76413C16.2954 8.32666 14.0068 6.48151 11.467 6.48151C9.13604 6.48151 7.21708 7.28981 5.8833 8.62113C4.54965 9.95232 3.74072 11.8666 3.74072 14.1907C3.74072 16.7243 4.73126 18.8355 6.28745 20.7758C7.86283 22.74 9.96769 24.47 12.1407 26.2506L12.1411 26.2509L12.2076 26.3055C14.2074 27.9458 16.3604 29.7118 18.0272 31.6855L17.2632 32.3307L18.0256 31.6835C18.1084 31.7811 18.2286 31.8359 18.3519 31.8359H18.4344C18.5568 31.8359 18.676 31.7815 18.7586 31.6843C18.7588 31.6842 18.7589 31.684 18.759 31.6838L19.5216 32.3307C21.1397 30.4181 23.2444 28.6919 25.2808 27.024L18.3917 10.521ZM18.3917 10.521L19.1148 9.76413C20.4873 8.32749 22.7817 6.48151 25.3235 6.48151C27.6537 6.48151 29.5723 7.28976 30.906 8.62109C32.2395 9.95229 33.0484 11.8666 33.0484 14.1907C33.0484 16.7249 32.0573 18.8365 30.5005 20.7767C28.9247 22.7409 26.8195 24.4705 24.6472 26.2504L18.3917 10.521Z" stroke="#E86D8A" stroke-width="2"/>
</g>
</svg>
